#tb 0: 1/15
#media_type 0: video
#codec_id 0: rawvideo
#dimensions 0: 640x480
#sar 0: 0/1
0,          0,          0,        1,   921600, 0xc0e68764
0,          1,          1,        1,   921600, 0xc0e68764
0,          2,          2,        1,   921600, 0xc0e68764
0,          3,          3,        1,   921600, 0xc0e68764
0,          4,          4,        1,   921600, 0xc0e68764
0,          5,          5,        1,   921600, 0xc0e68764
0,          7,          7,        2,   921600, 0x01a16629
0,          9,          9,        1,   921600, 0x01a16629
0,         10,         10,        1,   921600, 0x01a16629
0,         11,         11,        1,   921600, 0x01a16629
0,         12,         12,        1,   921600, 0x01a16629
0,         13,         13,        1,   921600, 0x01a16629
